HIERARCHY
ROOT Hips
{
  OFFSET 279.157 85.6768 304.565
  CHANNELS 6 Xposition Yposition Zposition Zrotation Xrotation Yrotation
  JOINT LeftUpLeg
  {
    OFFSET 8.64259 1.95398 -2.38835
    CHANNELS 3 Zrotation Xrotation Yrotation
    JOINT LeftLeg
    {
      OFFSET 43.7702 0 0
      CHANNELS 3 Zrotation Xrotation Yrotation
      JOINT LeftFoot
      {
        OFFSET 40.6238 0 0
        CHANNELS 3 Zrotation Xrotation Yrotation
        JOINT LeftToeBase
        {
          OFFSET 12.7242 0 0
          CHANNELS 3 Zrotation Xrotation Yrotation
          End Site
          {
            OFFSET 0 0 0
          }
        }
      }
    }
  }
  JOINT RightUpLeg
  {
    OFFSET -8.2249 1.95398 -2.59336
    CHANNELS 3 Zrotation Xrotation Yrotation
    JOINT RightLeg
    {
      OFFSET 43.5653 0 0
      CHANNELS 3 Zrotation Xrotation Yrotation
      JOINT RightFoot
      {
        OFFSET 40.6238 0 0
        CHANNELS 3 Zrotation Xrotation Yrotation
        JOINT RightToeBase
        {
          OFFSET 12.7242 0 0
          CHANNELS 3 Zrotation Xrotation Yrotation
          End Site
          {
            OFFSET 0 0 0
          }
        }
      }
    }
  }
  JOINT Spine
  {
    OFFSET 0.165834 0.87714 6.61349
    CHANNELS 3 Zrotation Xrotation Yrotation
    JOINT Spine1
    {
      OFFSET 7.38963 1.71661e-005 0
      CHANNELS 3 Zrotation Xrotation Yrotation
      JOINT Spine2
      {
        OFFSET 11.9445 1.14441e-005 0
        CHANNELS 3 Zrotation Xrotation Yrotation
        JOINT Spine3
        {
          OFFSET 14.7254 4.19617e-005 0
          CHANNELS 3 Zrotation Xrotation Yrotation
          JOINT Spine4
          {
            OFFSET 10.9679 0 0
            CHANNELS 3 Zrotation Xrotation Yrotation
            JOINT RightShoulder
            {
              OFFSET 2.46616 -1.6653 3.69651
              CHANNELS 3 Zrotation Xrotation Yrotation
              JOINT RightArm
              {
                OFFSET 13.0012 0 0
                CHANNELS 3 Zrotation Xrotation Yrotation
                JOINT RightForeArm
                {
                  OFFSET 28.7848 1.52588e-005 0
                  CHANNELS 3 Zrotation Xrotation Yrotation
                  JOINT RightHand
                  {
                    OFFSET 26.5688 1.52588e-005 0
                    CHANNELS 3 Zrotation Xrotation Yrotation
                    End Site
                    {
                      OFFSET 0 0 0
                    }
                  }
                }
              }
            }
            JOINT LeftShoulder
            {
              OFFSET 2.38034 -1.29275 -3.7523
              CHANNELS 3 Zrotation Xrotation Yrotation
              JOINT LeftArm
              {
                OFFSET 16.3182 6.10351e-005 0
                CHANNELS 3 Zrotation Xrotation Yrotation
                JOINT LeftForeArm
                {
                  OFFSET 27.0901 0 0
                  CHANNELS 3 Zrotation Xrotation Yrotation
                  JOINT LeftHand
                  {
                    OFFSET 24.5451 1.52588e-005 0
                    CHANNELS 3 Zrotation Xrotation Yrotation
                    End Site
                    {
                      OFFSET 0 0 0
                    }
                  }
                }
              }
            }
            JOINT Neck
            {
              OFFSET 5.0226 -0.0266342 0
              CHANNELS 3 Zrotation Xrotation Yrotation
              JOINT Head
              {
                OFFSET 6.69364 2.86102e-005 0
                CHANNELS 3 Zrotation Xrotation Yrotation
                End Site
                {
                  OFFSET 0 0 0
                }
              }
            }
          }
        }
      }
    }
  }
}
MOTION
Frames:	12
Frame Time:	0.0416667
34.6024 30.6705 38.2694 -3.04264 -15.2831 -1.06997 -175.96 -0.36587 89.8399 -18.1861 27.5586 2.3169 83.1735 18.7298 4.95869 17.6039 -7.51125 4.08926 175.801 -4.93742 92.1108 -8.48842 -17.2698 -0.860936 86.6323 -18.0248 -1.56786 50.602 -7.36178 0.464148 0.82734 7.58299 -90.18 11.7127 1.56113 -0.523732 0.0425962 1.53656 -0.591947 -22.5001 1.64633 -0.0302144 -2.48742 1.64633 -0.0302237 96.9055 -9.86963 -98.0148 5.93987 -12.0363 -17.1154 -31.7871 -9.22206 -70.0623 -66.6614 -9.12593 6.5672 -84.5487 -31.0683 84.0239 2.17955 -2.80426 -35.8191 128.136 63.7727 -151.013 -16.1394 13.4706 -93.4545 28.3955 -0.635825 -1.11732 -2.7007 -0.188222 1.66291 
34.6355 26.5451 38.853 -1.87211 -14.9762 -1.11079 -175.941 -2.89892 90.0585 -18.3123 31.7058 2.94108 84.623 20.4632 5.60995 17.5139 -10.4418 11.2948 176.997 -7.45406 92.5858 -8.93624 -15.8861 -2.58668 88.5239 -20.5772 -3.7991 49.0695 -6.51411 5.32845 0.757244 7.37329 -90.1585 12.131 1.43035 -0.474323 0.460725 1.4081 -0.536836 -22.0807 1.50677 -0.0224195 -2.06808 1.50677 -0.0224224 97.5238 -10.6083 -95.9335 8.0651 -15.5177 -12.7656 -32.4922 -2.12794 -76.578 -81.3214 -11.1759 6.33537 -84.1875 -31.3424 84.7668 2.81007 -0.733111 -30.0035 120.371 58.3426 -143.205 -16.4073 13.7373 -93.4989 35.3901 -1.23138 -1.74706 -4.6112 -0.450236 2.7556 
34.6924 23.3261 39.8342 -3.65087 -15.2255 -1.16656 -174.655 -4.35349 90.8921 -20.3371 33.632 2.17372 84.2213 21.0408 7.57651 9.58773 -10.5038 -0.586737 177.141 -9.73324 92.4833 -9.08983 -16.2541 -2.88171 88.6254 -20.012 -2.12698 50.5935 -6.95207 5.31778 0.862815 7.20521 -90.2644 12.4692 1.58853 -0.711008 0.798967 1.5557 -0.780247 -21.7437 1.72875 -0.200576 -1.73109 1.72876 -0.200587 97.425 -10.5485 -96.2431 8.88896 -19.6061 -8.02611 -35.4914 1.43829 -80.7149 -78.0027 -11.6063 7.66106 -84.3392 -33.5064 84.8686 6.43165 2.21267 -22.3909 115.853 49.3175 -139.729 -14.9633 12.9067 -95.6903 40.6707 -0.761436 -1.60348 -7.22719 -0.0286553 2.25958 
34.7608 20.6639 40.7941 -3.49142 -15.4866 -1.20687 -174.572 -6.65222 90.6339 -20.0424 34.4534 2.37027 83.7204 21.4713 8.96083 -9.5519 -14.1884 -11.6419 177.138 -10.7535 92.0895 -11.5656 -17.4351 -3.50377 89.4816 -20.2919 -2.17766 48.1425 -6.36495 3.20258 0.78286 7.13689 -90.2524 12.605 1.43479 -0.671889 0.93461 1.40383 -0.734399 -21.6067 1.57037 -0.209529 -1.59405 1.57037 -0.209519 97.9002 -9.79949 -95.0801 10.3098 -25.6086 -5.63113 -45.9419 3.55295 -81.6581 -58.4265 -9.16832 7.86466 -84.2534 -33.2557 84.986 7.04381 4.8691 -16.5998 102.886 49.6491 -128.952 -18.5126 14.7427 -89.6593 45.7144 -1.10135 -1.82095 -9.31431 -0.113111 1.12805 
34.7713 18.7219 41.7209 -3.02672 -14.6983 -0.495938 -174.37 -7.14065 91.3224 -19.8174 32.6247 2.57231 84.9457 20.9361 5.91808 3.23131 -11.4286 -4.83132 176.934 -10.3438 92.2337 -13.4898 -18.5451 -3.17376 88.8851 -19.5862 -2.30241 46.4908 -5.7781 5.58534 0.768676 6.97429 -90.2789 12.9304 1.39244 -0.72615 1.25993 1.35913 -0.786745 -21.2808 1.54629 -0.274018 -1.26821 1.54629 -0.27402 97.3307 -10.5901 -96.4897 13.9456 -27.7577 0.832541 -43.2304 11.2972 -82.0248 -76.9665 -11.0967 6.62065 -84.0231 -33.3027 85.4191 5.73631 7.07615 -12.552 103.342 44.7637 -127.146 -18.5157 14.9624 -90.2649 49.3895 -1.86686 -2.97726 -10.5765 -0.18819 2.18978 
34.6589 17.3682 42.5238 -2.78556 -14.1727 -0.50991 -174.571 -7.22321 91.2282 -20.325 33.3885 2.89457 83.9912 20.3461 6.30319 9.88841 -9.68651 -1.78956 176.662 -10.3137 91.7514 -14.3278 -20.268 -3.28195 89.4324 -19.9484 -2.4827 43.5908 -4.95464 4.74353 0.745812 6.84861 -90.243 13.1814 1.36314 -0.65598 1.51095 1.33295 -0.715333 -21.0297 1.49725 -0.215876 -1.0171 1.49725 -0.215886 96.9595 -11.6705 -97.2068 16.6183 -30.2422 5.31955 -45.2361 12.3934 -83.0897 -80.1573 -13.1343 8.61035 -84.5663 -34.4675 84.6175 5.60436 8.20889 -7.84541 100.966 41.7382 -123.635 -19.6563 15.7308 -89.2273 50.513 -1.94407 -2.36669 -11.3573 -0.5422 1.53132 
34.488 16.2998 43.1567 -2.96326 -13.6334 -0.346238 -174.326 -7.56383 91.4405 -19.6697 30.0978 2.57581 85.2147 19.3535 2.47607 -13.4881 -15.5771 -13.1806 176.806 -10.5179 91.9798 -14.2511 -20.7102 -3.34804 88.1151 -19.1313 -2.7693 42.9831 -4.72115 9.68655 0.755164 6.77453 -90.2213 13.3294 1.39157 -0.618862 1.65906 1.36298 -0.67952 -20.8819 1.51321 -0.171941 -0.869276 1.51321 -0.171938 97.8061 -9.90195 -95.321 21.4093 -33.8734 5.63315 -50.0114 11.4323 -82.5723 -75.3857 -13.7267 10.3915 -84.1251 -33.0307 85.1836 2.15721 9.61573 -4.63887 99.4564 40.4979 -119.867 -20.1111 15.6875 -87.5692 51.2121 -2.22829 -2.55338 -11.0704 -0.695044 1.76887 
34.345 15.3413 43.6144 -3.27734 -13.1676 -0.202304 -174.184 -7.7516 91.1914 -19.3868 28.3171 2.27213 83.8849 19.0217 3.90912 8.11553 -11.5785 -0.125972 176.978 -10.6095 92.1553 -14.6186 -20.5 -3.41316 88.5368 -18.7439 -1.56677 40.9815 -4.23219 7.35131 0.778635 6.71859 -90.2641 13.4419 1.41686 -0.710163 1.7715 1.38424 -0.771843 -20.7695 1.56477 -0.251407 -0.756899 1.56478 -0.251415 97.3164 -11.2037 -96.3422 23.3366 -32.8676 9.29917 -50.8482 15.1591 -83.6975 -75.7708 -13.0268 9.26695 -84.6564 -33.1358 84.2104 0.478343 9.37787 -0.471235 102.032 35.9726 -120.352 -19.7125 15.7615 -89.1442 51.8284 -1.77295 -2.39151 -11.5311 -0.341463 1.57329 
34.2849 14.2173 43.932 -2.49007 -12.9316 -0.0647056 -174.653 -8.28026 90.5895 -19.4278 27.8326 2.70406 82.7 18.9917 5.74289 4.25671 -15.3629 2.72985 176.761 -11.2659 92.1118 -14.3365 -20.4084 -3.23333 88.3893 -18.7599 -1.75264 40.9987 -4.23503 8.95679 0.712058 6.68395 -90.2813 13.5105 1.2762 -0.727763 1.83994 1.24293 -0.783236 -20.6998 1.43591 -0.31051 -0.687141 1.43591 -0.310497 97.6302 -10.6216 -95.6182 25.9211 -33.044 11.0948 -54.3333 19.4132 -81.6112 -73.4172 -12.7277 9.35943 -84.4783 -33.8836 84.6754 1.24949 10.1565 1.48674 101.152 32.7928 -119.569 -19.9064 16.0811 -89.6786 52.4176 -1.64801 -2.09747 -11.8045 -0.387804 1.49366 
34.1249 13.0257 44.1831 -2.16706 -12.9368 -0.102914 -174.673 -9.24385 90.5093 -18.9858 26.1891 2.76466 83.2317 18.7006 4.10552 2.30385 -17.4435 4.27586 176.861 -11.1808 92.1735 -15.9034 -20.7603 -3.42637 87.2556 -17.8732 -1.88022 44.2989 -5.13803 5.83275 0.711334 6.64832 -90.3357 13.5821 1.24798 -0.834487 1.91151 1.21004 -0.888624 -20.6277 1.44107 -0.420781 -0.61509 1.44107 -0.420803 97.2856 -11.8401 -96.2196 25.4919 -33.6891 14.3607 -57.6095 17.698 -84.1201 -69.866 -16.4893 16.0605 -84.7868 -32.5753 83.862 -1.15221 10.7455 3.67425 98.4406 32.2254 -117.433 -20.7976 16.4194 -87.9829 52.108 -1.02451 -1.09072 -11.505 -0.354719 0.737258 
34.0633 11.9574 44.3207 -1.89509 -13.2474 -0.130333 -174.386 -10.2685 90.6038 -18.7859 25.8424 2.54006 83.7143 18.8069 3.4004 3.0817 -17.5591 5.39382 176.845 -11.925 92.2628 -16.7195 -21.2616 -3.6149 87.2043 -18.5914 -3.55386 43.0005 -4.77426 5.58274 0.720407 6.65031 -90.3336 13.5785 1.26705 -0.832563 1.90783 1.22919 -0.887521 -20.6316 1.45868 -0.413203 -0.618899 1.45868 -0.413214 97.1268 -12.4133 -96.487 25.8423 -32.5101 16.2452 -56.8258 21.087 -85.0299 -75.3199 -14.4569 11.0051 -85.2811 -32.4327 82.9073 -0.0801781 10.8642 5.2483 95.0651 30.9227 -116.803 -21.781 16.9733 -86.8741 51.9039 -1.51276 -1.7296 -10.8847 -0.506225 1.73222 
34.051 11.2843 44.3367 -0.842034 -13.6067 -0.0578239 -174.433 -10.7729 90.5515 -19.6856 25.1888 2.74644 84.8136 19.3191 2.78915 7.65397 -14.3852 5.217 176.598 -12.9764 92.2199 -16.1862 -20.1701 -3.30408 87.4994 -18.6498 -3.07932 43.5394 -4.93645 4.84382 0.59982 6.63563 -90.3367 13.6064 1.0262 -0.808222 1.9356 0.989636 -0.852611 -20.602 1.22166 -0.462413 -0.589362 1.22165 -0.462422 96.9954 -11.7079 -97.0901 27.2702 -32.5628 17.7527 -56.8899 21.2485 -85.6777 -74.925 -14.2403 10.8226 -85.6124 -33.3564 82.4791 1.24405 11.0093 6.50752 92.1695 29.8605 -116.003 -22.9372 17.7389 -86.0548 51.2977 -1.0854 -0.750172 -10.4786 -0.578448 0.23738 
